<svg width="512" height="512" viewBox="0 0 512 512" fill="none" xmlns="http://www.w3.org/2000/svg">
  <defs>
    <linearGradient id="bg" x1="88" y1="72" x2="432" y2="456" gradientUnits="userSpaceOnUse">
      <stop offset="0" stop-color="#0F6CBD"/>
      <stop offset="0.55" stop-color="#0A84D8"/>
      <stop offset="1" stop-color="#32C5FF"/>
    </linearGradient>
    <linearGradient id="foxOuter" x1="172" y1="124" x2="340" y2="420" gradientUnits="userSpaceOnUse">
      <stop offset="0" stop-color="#F7FBFF"/>
      <stop offset="1" stop-color="#CBEFFF"/>
    </linearGradient>
    <linearGradient id="foxInner" x1="216" y1="214" x2="292" y2="390" gradientUnits="userSpaceOnUse">
      <stop offset="0" stop-color="#9BE7FF"/>
      <stop offset="1" stop-color="#56B8FF"/>
    </linearGradient>
    <linearGradient id="earGlow" x1="160" y1="124" x2="344" y2="196" gradientUnits="userSpaceOnUse">
      <stop offset="0" stop-color="#D7F6FF"/>
      <stop offset="1" stop-color="#8EDBFF"/>
    </linearGradient>
    <filter id="shadow" x="88" y="72" width="336" height="368" filterUnits="userSpaceOnUse" color-interpolation-filters="sRGB">
      <feFlood flood-opacity="0" result="BackgroundImageFix"/>
      <feColorMatrix in="SourceAlpha" type="matrix" values="0 0 0 0 0 0 0 0 0 0 0 0 0 0 0 0 0 0 127 0" result="hardAlpha"/>
      <feOffset dy="14"/>
      <feGaussianBlur stdDeviation="14"/>
      <feComposite in2="hardAlpha" operator="out"/>
      <feColorMatrix type="matrix" values="0 0 0 0 0.0117647 0 0 0 0 0.207843 0 0 0 0 0.396078 0 0 0 0.25 0"/>
      <feBlend mode="normal" in2="BackgroundImageFix" result="effect1_dropShadow_1_1"/>
      <feBlend mode="normal" in="SourceGraphic" in2="effect1_dropShadow_1_1" result="shape"/>
    </filter>
  </defs>

  <rect x="32" y="32" width="448" height="448" rx="112" fill="url(#bg)"/>

  <path
    d="M154 118L210 94L194 148L154 118Z"
    fill="#8FDBFF"
    fill-opacity="0.55"
  />
  <path
    d="M324 92L376 122L324 142L324 92Z"
    fill="#DDF8FF"
    fill-opacity="0.45"
  />
  <path
    d="M368 156L408 192L352 204L368 156Z"
    fill="#EAFBFF"
    fill-opacity="0.4"
  />

  <path
    d="M144 300C108 300 80 272 80 238C80 205 106 178 139 176C148 125 193 88 249 88C287 88 321 106 343 135C357 129 371 126 387 126C438 126 478 164 478 211C478 218 477 225 475 232C499 240 516 260 516 286C516 323 483 352 443 352H144"
    transform="translate(-42 4)"
    stroke="#B9EDFF"
    stroke-width="20"
    stroke-linecap="round"
    stroke-linejoin="round"
    stroke-opacity="0.9"
  />

  <g filter="url(#shadow)">
    <path
      d="M178 132L226 190L256 162L286 190L334 132L356 228C356 310 316 376 256 414C196 376 156 310 156 228L178 132Z"
      fill="url(#foxOuter)"
    />
    <path
      d="M190 142L226 182L238 128L190 142Z"
      fill="url(#earGlow)"
    />
    <path
      d="M322 142L286 182L274 128L322 142Z"
      fill="url(#earGlow)"
    />
    <path
      d="M206 230L256 184L306 230L286 334L256 384L226 334L206 230Z"
      fill="url(#foxInner)"
    />
    <path
      d="M214 248L180 274C184 314 204 348 236 372L240 320L214 248Z"
      fill="#F5FCFF"
    />
    <path
      d="M298 248L332 274C328 314 308 348 276 372L272 320L298 248Z"
      fill="#F5FCFF"
    />
    <path
      d="M256 188L276 210L256 238L236 210L256 188Z"
      fill="#E7FAFF"
      fill-opacity="0.92"
    />
    <path
      d="M256 222L270 252L256 288L242 252L256 222Z"
      fill="#229BEB"
    />
    <path
      d="M236 292L256 320L276 292L272 332L256 354L240 332L236 292Z"
      fill="#0F6CBD"
    />
    <path
      d="M214 220L238 228L222 246L198 238L214 220Z"
      fill="#D5F6FF"
      fill-opacity="0.75"
    />
    <path
      d="M298 220L314 238L290 246L274 228L298 220Z"
      fill="#D5F6FF"
      fill-opacity="0.75"
    />
    <path
      d="M218 264C227 264 234 258 236 250C230 246 222 244 214 244C206 244 198 246 192 250C194 258 201 264 210 264H218Z"
      fill="#0A3B6C"
    />
    <path
      d="M302 264C311 264 318 258 320 250C314 246 306 244 298 244C290 244 282 246 276 250C278 258 285 264 294 264H302Z"
      fill="#0A3B6C"
    />
    <path
      d="M246 296L256 304L266 296"
      stroke="#083259"
      stroke-width="8"
      stroke-linecap="round"
      stroke-linejoin="round"
    />
  </g>
</svg>
